<?xml version="1.0" standalone="no"?>
<!DOCTYPE svg PUBLIC "-//W3C//DTD SVG 20010904//EN"
 "http://www.w3.org/TR/2001/REC-SVG-20010904/DTD/svg10.dtd">
<svg version="1.0" xmlns="http://www.w3.org/2000/svg"
 width="1024.000000pt" height="1024.000000pt" viewBox="0 0 1024.000000 1024.000000"
 preserveAspectRatio="xMidYMid meet">
<metadata>
Created by potrace 1.14, written by Peter Selinger 2001-2017
</metadata>
<g transform="translate(0.000000,1024.000000) scale(0.100000,-0.100000)"
fill="#000000" stroke="none">
<path d="M7610 10213 c-30 -13 -91 -36 -135 -50 -43 -14 -84 -31 -91 -38 -7
-6 -47 -20 -90 -29 -133 -31 -347 -87 -389 -102 -56 -21 -207 -59 -290 -73
-38 -6 -92 -16 -120 -21 -27 -5 -241 -15 -475 -20 -234 -6 -549 -15 -700 -20
-217 -6 -1166 -10 -2400 -9 -47 0 -291 0 -543 0 l-458 -1 -17 -32 c-9 -18 -29
-45 -45 -61 -16 -17 -27 -40 -27 -56 0 -29 -35 -84 -69 -107 -11 -8 -23 -30
-27 -49 -3 -18 -12 -36 -20 -39 -8 -3 -14 -16 -14 -29 0 -14 -6 -30 -14 -36
-8 -6 -16 -24 -19 -39 -3 -15 -8 -38 -11 -52 -3 -14 -8 -46 -11 -71 -5 -42 -9
-47 -35 -53 -26 -5 -30 -10 -36 -55 -6 -49 -7 -50 -43 -53 -25 -2 -37 -8 -39
-20 -2 -11 3 -18 12 -18 9 0 16 -5 16 -11 0 -5 -4 -8 -9 -4 -6 3 -9 -4 -8 -15
1 -11 7 -19 16 -17 7 1 16 -4 19 -12 3 -9 0 -11 -8 -6 -8 5 -11 4 -6 -3 3 -5
0 -12 -6 -14 -8 -3 -4 -10 11 -17 20 -11 23 -11 18 1 -3 8 -1 21 4 29 5 9 9
-32 9 -106 -1 -96 -3 -117 -13 -104 -7 9 -17 14 -23 12 -7 -2 -10 7 -8 24 2
16 1 20 -2 8 -3 -11 -10 -24 -15 -29 -5 -6 -9 -22 -9 -36 0 -14 -6 -32 -12
-39 -10 -9 -12 -92 -10 -365 3 -248 1 -356 -7 -360 -6 -4 -11 -23 -11 -43 0
-29 -8 -43 -45 -77 l-45 -42 -1 -95 c-1 -240 -10 -658 -14 -697 -6 -56 -47
-127 -99 -174 l-41 -38 -3 -252 c-1 -139 -2 -258 -2 -264 0 -7 -9 -14 -20 -17
-15 -4 -20 -14 -20 -40 0 -26 -5 -36 -20 -40 -20 -5 -20 -14 -20 -420 0 -395
-1 -415 -19 -436 -11 -13 -23 -36 -26 -52 -4 -16 -15 -35 -26 -43 -18 -12 -20
-33 -30 -292 -5 -154 -11 -382 -12 -509 -2 -256 -7 -278 -72 -345 -19 -19 -39
-48 -44 -63 -7 -18 -11 -156 -11 -378 l0 -349 -24 -10 c-17 -6 -26 -19 -31
-47 -6 -35 -21 -367 -24 -530 -1 -56 -4 -73 -15 -73 -8 0 -16 9 -18 20 -5 35
-21 17 -24 -29 -4 -45 -16 -60 -67 -83 -33 -15 -39 -34 -36 -113 1 -33 1 -115
1 -182 -2 -116 -3 -123 -22 -123 -20 0 -20 -4 -14 -192 4 -106 10 -195 13
-198 3 -3 6 -50 6 -105 -1 -55 2 -124 6 -154 4 -30 9 -187 10 -350 1 -163 4
-302 7 -308 2 -8 23 -13 53 -13 48 0 48 0 54 -37 3 -21 11 -47 17 -58 7 -11
18 -33 26 -50 9 -16 27 -41 42 -55 49 -46 62 -74 48 -104 -15 -34 2 -49 44
-40 23 5 28 1 34 -20 5 -21 14 -27 45 -32 21 -4 36 -11 33 -16 -7 -12 25 -48
42 -48 7 0 25 -12 39 -28 l25 -27 223 -2 c122 -1 313 -4 424 -7 202 -5 251 0
316 35 33 18 398 28 449 12 15 -4 254 -5 530 -2 277 4 711 7 964 8 l461 1 6
-30 6 -30 100 0 c95 0 99 1 105 23 5 23 12 24 103 30 54 4 204 7 334 7 199 0
239 -2 249 -15 11 -14 86 -15 634 -9 341 3 655 8 696 10 41 3 120 6 175 7 55
1 108 6 118 11 11 5 23 4 32 -4 9 -7 51 -14 96 -16 45 -2 86 -8 93 -13 6 -5
62 -11 124 -13 92 -2 112 0 116 12 3 12 4 12 5 -1 1 -14 13 -17 76 -16 52 1
75 5 75 14 0 8 16 11 57 8 36 -3 62 0 71 8 8 7 17 11 19 10 12 -9 33 0 38 16
5 18 19 19 283 17 l277 -1 3 -38 3 -39 127 5 c169 6 202 14 227 54 11 18 26
32 34 33 12 0 13 27 8 163 -4 89 -7 199 -7 245 l0 82 -141 0 c-78 0 -170 -5
-205 -12 l-63 -11 -3 -94 c-4 -112 -10 -107 139 -100 54 3 107 1 118 -3 12 -5
-48 -9 -150 -10 -93 -1 -174 -3 -180 -5 -5 -1 -17 -3 -25 -3 -11 -2 -11 -5 -2
-14 6 -6 61 -14 129 -17 135 -7 -757 -20 -1771 -26 l-658 -4 4 34 c2 19 -1 37
-7 39 -6 3 -5 8 4 14 11 8 11 10 0 15 -8 3 5 5 28 5 28 -1 40 -5 36 -12 -5 -8
-3 -8 8 0 20 15 60 15 78 1 12 -10 13 -9 7 1 -6 10 1 12 26 9 19 -2 40 -7 47
-12 10 -5 12 -4 7 3 -5 8 2 12 21 12 26 0 30 -5 39 -42 6 -27 15 -42 27 -44 9
-1 17 2 17 8 0 6 6 6 15 -2 12 -10 137 -11 571 -6 307 3 559 8 562 11 3 3 -53
5 -125 5 -94 0 -141 4 -167 15 -38 16 -59 18 -118 11 -30 -3 -36 -1 -31 13 4
11 -3 8 -22 -9 l-27 -25 6 25 c6 23 6 23 -7 8 -17 -22 -27 -23 -27 -4 0 8 -6
16 -12 19 -7 3 5 5 27 4 80 0 77 -4 70 66 -15 155 -13 149 -48 141 -18 -4 -45
-7 -62 -6 -16 1 -392 4 -835 7 -442 4 -807 8 -809 11 -2 2 -247 4 -543 4 -527
0 -538 0 -538 20 0 16 8 19 63 22 l62 3 -2 35 c0 19 -1 47 -2 63 -1 15 -4 26
-8 26 -5 -1 -12 0 -18 1 -5 1 -44 1 -85 -1 -126 -6 -2130 0 -2207 6 l-72 7 -3
36 c-3 34 -6 37 -36 40 -24 2 -31 7 -24 15 5 7 5 25 0 46 -7 26 -12 31 -19 20
-7 -12 -9 -11 -9 3 0 14 -29 16 -312 17 -207 1 -316 5 -325 13 -18 14 -18 187
0 193 16 5 1629 16 2301 15 373 0 522 3 532 11 8 6 14 22 14 36 0 13 12 35 26
48 23 21 26 31 21 64 -5 37 -3 39 25 45 17 3 87 6 156 6 107 0 127 2 138 18
13 16 13 16 14 -3 0 -17 2 -17 10 -5 5 8 10 11 10 5 0 -5 5 -3 10 5 7 11 10
11 10 2 0 -7 5 -10 11 -6 6 3 99 8 206 10 165 2 198 0 211 -13 8 -8 26 -13 39
-10 12 2 23 1 23 -2 0 -7 11 -6 283 4 156 6 187 5 188 -6 1 -8 0 -60 -1 -117
l-2 -102 1470 1 c808 0 1486 -3 1506 -6 l36 -7 0 -77 c0 -79 9 -101 42 -101
13 0 18 -8 18 -25 l0 -25 151 0 152 0 -6 761 c-3 418 -7 762 -9 765 -4 4 -47
10 -88 13 -24 2 -27 362 -5 385 9 8 16 19 15 23 0 4 8 8 18 8 9 0 16 -6 14
-12 -1 -7 6 -13 17 -13 16 0 19 11 25 82 7 91 14 1493 8 1816 l-3 202 -40 16
c-70 29 -68 2 -65 664 3 558 4 598 22 635 10 22 29 48 41 58 23 18 23 22 23
222 0 219 0 220 -55 227 l-30 3 -3 132 -3 133 39 6 c72 11 66 -25 72 501 3
263 4 578 2 701 l-2 222 -28 0 c-77 1 -81 10 -91 195 l-6 120 -95 0 c-52 0
-104 -3 -114 -8 -19 -7 -19 -8 0 -21 18 -14 18 -15 1 -33 -9 -11 -17 -27 -17
-36 0 -9 -5 -17 -11 -17 -7 0 -9 -10 -5 -25 6 -22 3 -25 -23 -25 -24 0 -28 3
-24 20 4 13 -1 26 -12 34 -13 9 -16 23 -13 54 l4 42 -73 -1 c-54 -1 -80 3
-104 17 -59 35 -60 45 -59 602 l0 502 -232 -1 c-228 0 -234 -1 -288 -26z
m-1825 -380 c-16 -2 -38 -14 -48 -26 -10 -12 -15 -15 -11 -7 6 12 4 13 -7 3
-7 -7 -24 -13 -38 -13 -24 0 -24 0 -5 15 19 15 19 16 -1 14 -33 -2 -45 1 -45
11 0 6 37 9 93 9 50 -1 79 -4 62 -6z m326 -4 c59 -2 66 -4 61 -21 -3 -14 -14
-18 -47 -18 -25 0 -50 6 -59 15 -8 8 -21 15 -30 15 -8 0 -18 5 -22 11 -4 7 0
9 12 5 11 -3 49 -6 85 -7z m-991 -33 c0 -9 -40 -13 -46 -5 -3 5 6 9 20 9 14 0
26 -2 26 -4z m1919 -428 c-11 -40 -12 -188 -1 -188 21 0 32 29 32 87 0 60 1
63 24 63 13 0 27 -7 30 -16 8 -22 6 -211 -3 -280 -7 -47 -5 -56 14 -74 12 -11
31 -20 42 -20 24 0 33 -24 33 -87 l0 -41 -77 5 c-65 5 -81 10 -100 31 -24 26
-53 24 -53 -3 0 -9 -9 -15 -26 -15 -24 0 -25 2 -22 53 l3 52 38 -3 c59 -5 76
18 74 104 -2 67 -3 69 -29 72 -18 2 -29 -2 -30 -10 -3 -27 -4 -34 -15 -68 -7
-19 -14 -46 -17 -60 -5 -26 1 93 7 143 2 15 4 86 5 157 l2 130 39 0 40 0 -10
-32z m-379 -2 c6 -17 19 -26 45 -30 25 -5 39 -14 42 -27 4 -14 14 -19 42 -19
l37 0 11 -57 c15 -73 17 -263 3 -263 -5 0 -10 8 -10 18 0 10 -6 24 -12 31 -11
11 -10 12 0 6 12 -6 12 -3 2 15 -11 21 -12 21 -27 3 -8 -10 -12 -12 -8 -5 8
15 -7 16 -23 0 -9 -9 -12 -8 -12 6 0 11 -5 16 -14 13 -17 -7 -26 21 -26 85 0
39 -4 50 -25 65 -14 10 -35 26 -47 36 -11 9 -33 17 -48 17 -37 0 -92 29 -83
43 24 41 58 76 76 80 53 10 68 7 77 -17z m-3012 -1 c4 -4 6 -100 6 -213 -2
-194 -3 -209 -24 -244 -16 -27 -29 -38 -46 -38 l-24 0 -1 138 c0 148 -9 220
-24 212 -6 -3 -11 10 -13 28 -3 32 -5 33 -45 30 -52 -4 -53 -6 -49 -230 l3
-178 24 0 c13 0 36 -5 50 -10 21 -8 26 -16 23 -38 -3 -27 -4 -27 -78 -27 l-74
0 -31 45 c-30 44 -30 47 -30 175 0 155 18 223 78 291 35 39 43 44 82 44 24 0
47 -5 50 -10 10 -15 25 -2 25 22 0 19 4 20 45 15 26 -2 49 -8 53 -12z m1254
-5 c8 -13 19 -18 33 -14 12 3 48 -6 81 -21 53 -24 57 -28 37 -36 -17 -6 -23
-17 -23 -37 0 -29 1 -29 45 -24 l45 5 0 -146 c0 -139 -1 -146 -21 -152 -11 -4
-23 -4 -26 -1 -3 3 -18 -1 -34 -9 -26 -14 -29 -14 -39 4 -5 11 -12 32 -14 48
-2 15 -9 41 -15 57 -6 16 -13 67 -14 112 -1 46 -7 88 -12 93 -6 6 -41 13 -78
16 l-67 6 0 -174 c0 -193 -1 -191 63 -180 46 7 67 -15 67 -73 l0 -44 -64 0
c-48 0 -65 4 -70 15 -3 9 -18 15 -35 15 -23 0 -34 8 -50 34 -25 40 -27 62 -5
74 23 13 8 32 -25 32 l-28 0 4 118 c3 64 9 121 13 125 4 5 24 9 44 10 34 1 36
3 36 35 0 25 8 41 30 62 17 15 30 37 30 49 0 18 6 21 40 21 29 0 43 -5 52 -20z
m1360 -202 l3 -223 33 -3 32 -3 0 -60 0 -60 -107 3 c-107 3 -108 3 -111 28 -2
14 -8 30 -13 36 -15 19 2 54 27 54 38 0 45 29 42 167 l-3 128 -37 3 c-30 3
-37 8 -43 30 -7 27 13 52 42 52 8 0 21 16 29 35 13 33 17 35 59 35 l45 0 2
-222z m-2168 165 c64 -54 76 -98 76 -285 l0 -149 -27 3 c-34 4 -41 29 -45 158
-2 52 -7 94 -12 93 -6 -1 -11 -10 -12 -18 -3 -20 -23 -45 -36 -45 -5 0 -7 4
-4 8 3 5 -1 9 -9 9 -8 0 -12 -4 -9 -9 3 -4 0 -8 -5 -8 -6 0 -11 19 -11 43 0
116 -27 153 -89 127 -26 -10 -30 -18 -33 -53 -3 -40 -5 -42 -35 -43 -41 0 -46
-5 -37 -38 4 -16 13 -26 24 -26 11 0 22 -4 25 -10 3 -5 -1 -10 -10 -10 -13 0
-14 -4 -4 -22 9 -18 8 -24 -5 -34 -12 -9 -16 -23 -14 -50 4 -48 31 -64 110
-64 l56 0 -2 -52 c-2 -44 -6 -53 -27 -60 -30 -11 -94 -1 -110 18 -6 8 -17 14
-23 14 -16 1 -81 61 -96 89 -8 17 -12 67 -11 163 2 174 10 197 74 213 15 4 31
12 35 19 22 35 73 52 169 55 46 1 57 -3 97 -36z m1280 22 c3 -8 12 -15 21 -15
13 0 15 -28 15 -205 0 -198 1 -205 20 -205 18 0 20 -7 20 -55 l0 -55 -110 0
-110 0 0 54 c0 54 0 55 33 58 l32 3 0 145 0 145 -32 3 c-32 3 -33 5 -33 46 0
28 6 48 18 59 39 35 115 49 126 22z m-896 -25 c26 -34 28 -77 7 -107 -13 -18
-15 -49 -13 -160 l3 -138 33 -3 c31 -3 32 -5 32 -47 0 -24 -3 -46 -8 -49 -4
-2 -54 -6 -112 -8 l-105 -3 -3 38 c-2 24 3 48 13 64 25 37 25 341 1 378 -9 13
-16 33 -16 45 0 18 6 20 73 20 70 0 74 -1 95 -30z m1348 6 c3 -14 3 -29 0 -35
-4 -5 -1 -13 5 -17 8 -5 10 -55 8 -173 l-4 -166 32 -3 32 -3 -3 -57 -3 -57
-86 -3 c-105 -3 -134 9 -153 64 -19 54 -19 54 26 54 l40 0 0 150 0 150 -40 0
-40 0 0 48 0 49 58 10 c101 18 121 16 128 -11z m-2626 -1 c9 -11 11 -49 6
-148 -3 -72 -6 -185 -6 -249 l0 -118 -110 0 -110 0 0 55 0 55 49 0 49 0 7 66
c5 54 11 67 26 71 19 5 34 41 31 77 -2 30 -28 50 -69 50 l-38 1 -3 78 -3 77
79 0 c59 0 83 -4 92 -15z m3274 -106 c3 -17 3 -41 0 -54 -10 -40 12 -65 55
-65 35 0 39 -3 45 -31 3 -17 6 -53 6 -80 0 -42 3 -49 19 -49 13 0 23 -11 31
-36 7 -20 22 -40 36 -46 49 -23 21 -91 -30 -72 -9 3 -23 1 -30 -6 -12 -9 -17
-7 -26 9 -6 12 -19 21 -29 21 -10 0 -36 20 -57 46 -22 25 -51 59 -66 77 -27
31 -28 36 -28 153 0 107 2 123 20 142 29 30 46 27 54 -9z m-4914 -175 c0 -8
-4 -12 -10 -9 -5 3 -10 10 -10 16 0 5 5 9 10 9 6 0 10 -7 10 -16z m6898 -164
c2 -25 10 -52 18 -61 19 -21 24 -323 8 -544 -6 -88 -11 -314 -11 -502 -1 -347
-3 -373 -37 -373 -9 0 -11 -52 -9 -207 2 -115 5 -360 6 -545 1 -186 5 -338 9
-338 4 0 3 -12 -1 -27 -8 -33 -7 -48 13 -265 1 -16 0 -28 -3 -28 -3 0 -5 -104
-4 -231 2 -149 -1 -239 -8 -251 -7 -14 -8 -18 -1 -14 6 4 10 -2 9 -14 -1 -12
-6 -19 -14 -16 -7 3 -13 -1 -13 -9 0 -8 6 -12 14 -9 11 4 13 -36 14 -238 0
-134 0 -291 1 -351 l1 -107 29 -6 c31 -6 51 -38 51 -79 0 -13 4 -26 9 -29 13
-8 14 -1393 1 -1401 -7 -4 -10 -56 -9 -146 0 -95 4 -137 11 -132 7 4 8 1 3 -8
-8 -12 -8 -150 -3 -599 1 -76 -9 -215 -17 -240 -1 -3 -12 -27 -24 -53 -27 -57
-62 -77 -101 -55 -32 17 -38 43 -39 160 -1 101 -12 137 -58 184 -12 13 -29 34
-37 46 -14 19 -18 20 -26 9 -14 -24 -23 -174 -17 -303 l5 -120 -30 -17 c-17
-9 -31 -27 -35 -43 -3 -15 -9 -26 -13 -23 -11 7 -1 1415 10 1436 6 10 22 19
37 21 l28 3 3 93 c3 91 4 95 33 120 17 15 45 32 63 38 l31 12 2 523 c1 289 -2
542 -7 564 -5 22 -12 389 -16 815 -11 1169 -11 1278 -3 1370 4 47 10 447 12
890 3 597 7 813 16 837 10 26 10 36 -4 56 -21 32 -19 133 3 142 11 4 13 17 7
61 l-7 55 49 -3 48 -3 3 -45z m-4864 -296 c9 -4 16 -18 16 -35 0 -20 12 -40
38 -66 38 -37 39 -40 44 -126 6 -93 11 -108 30 -89 7 7 20 12 30 12 16 0 18
10 20 78 0 42 2 82 3 87 2 6 3 20 4 33 1 18 7 22 36 22 30 0 35 3 35 24 0 53
5 56 106 56 l94 0 0 -35 c0 -19 0 -38 0 -42 0 -5 21 -10 47 -13 l48 -5 3 -80
c2 -67 6 -83 23 -97 32 -27 39 -22 39 27 0 32 8 57 26 85 15 22 30 40 35 40 4
0 19 12 32 26 16 17 27 22 31 15 14 -21 25 -11 33 32 l9 42 70 3 71 3 7 -32
c3 -17 6 -42 6 -55 0 -32 24 -31 38 1 6 14 15 26 19 26 35 6 63 3 63 -7 0 -19
49 -45 78 -42 25 3 27 7 30 51 l3 47 105 0 c103 0 104 0 104 -24 0 -13 7 -29
15 -36 8 -7 15 -22 15 -35 0 -23 34 -45 69 -45 38 0 44 -26 47 -173 3 -163 -2
-175 -60 -173 -36 1 -39 -1 -56 -44 -15 -39 -24 -47 -66 -63 -51 -20 -136 -19
-155 0 -6 6 -13 29 -16 52 -5 40 -7 42 -34 36 -46 -10 -66 8 -73 67 -15 131
-24 189 -30 195 -3 4 -6 1 -6 -6 0 -7 -6 -18 -13 -26 -9 -8 -16 -49 -20 -103
-4 -49 -9 -96 -12 -105 -8 -18 -45 -30 -45 -14 -1 24 -40 -36 -40 -62 0 -45
-14 -55 -84 -59 -86 -6 -112 2 -120 33 -4 14 -17 30 -29 36 -13 6 -40 43 -62
85 -37 69 -42 74 -72 74 -26 0 -33 -4 -33 -20 0 -11 -8 -28 -19 -39 -10 -10
-21 -35 -25 -55 -6 -29 -11 -36 -29 -36 -19 0 -25 -9 -35 -46 l-13 -47 -72 8
c-40 4 -92 8 -117 9 -41 1 -46 4 -67 41 -26 46 -30 116 -8 138 13 13 10 16
-18 27 -18 6 -45 19 -60 27 -16 8 -31 13 -33 10 -8 -8 -58 45 -71 76 -7 15
-13 61 -13 102 l0 75 -68 0 c-56 0 -69 3 -80 20 -10 17 -10 20 2 20 8 0 18 9
21 20 3 11 15 20 26 20 14 0 19 7 19 30 l0 30 74 0 c41 0 81 -3 90 -6z m3120
-20 c9 -3 16 -12 16 -19 0 -7 9 -24 20 -38 18 -23 20 -40 20 -201 l0 -176 28
-5 c51 -11 57 -19 60 -79 l3 -56 -79 0 c-44 0 -107 3 -141 6 l-61 7 0 40 c0
44 22 77 52 77 17 0 18 11 18 151 l0 151 -55 -4 c-53 -4 -55 -4 -55 19 0 25
28 56 94 104 40 30 53 33 80 23z m-1294 -211 c0 -201 5 -233 40 -233 18 0 20
-7 20 -59 0 -71 0 -71 -121 -71 -86 0 -89 1 -89 23 0 13 -9 33 -20 45 -11 12
-20 26 -20 32 0 14 37 50 53 50 27 0 32 22 29 139 l-3 121 -35 0 c-33 0 -34 1
-34 39 0 43 36 91 68 91 11 0 32 6 46 14 15 8 36 12 47 9 18 -5 19 -16 19
-200z m-2357 162 c17 -19 37 -35 44 -35 7 0 13 -11 13 -24 0 -21 -6 -25 -32
-28 l-33 -3 -3 -162 -2 -163 30 0 c28 0 30 -2 30 -39 0 -46 -5 -48 -136 -57
l-91 -7 -6 31 c-3 17 -4 53 0 81 5 42 9 50 30 56 13 3 28 3 33 0 6 -4 10 46
10 129 l0 135 -32 3 c-29 3 -33 6 -33 33 0 22 5 31 19 33 11 3 36 15 55 28 49
32 68 30 104 -11z m2801 19 c18 -17 22 -94 6 -94 -14 0 -13 -272 2 -305 7 -17
19 -25 35 -25 24 0 24 -1 17 -57 -3 -32 -9 -60 -11 -63 -3 -3 -46 -4 -96 -3
-85 2 -92 4 -114 30 -46 53 -44 101 5 122 32 14 32 15 32 85 0 39 3 81 6 94 5
18 2 22 -19 22 -31 0 -37 15 -37 93 0 52 4 65 27 89 23 24 35 28 79 28 34 0
58 -5 68 -16z m387 6 c44 0 49 -2 49 -23 0 -13 6 -29 13 -36 10 -11 10 -14 0
-18 -18 -6 -18 -314 -1 -331 7 -7 25 -12 40 -12 29 0 29 0 26 -57 l-3 -58 -55
-5 c-30 -3 -85 -3 -122 -2 -77 4 -82 11 -70 82 6 36 12 45 32 50 25 6 25 6 28
147 l3 141 -33 8 c-18 4 -40 7 -49 5 -16 -2 -17 1 -10 76 1 7 7 10 15 7 8 -3
24 4 36 16 12 12 28 19 37 16 8 -3 37 -6 64 -6z m912 -2 l26 -13 3 -190 3
-190 43 -3 42 -3 0 -44 c0 -24 2 -49 5 -57 11 -30 -11 -39 -107 -42 -52 -2
-100 -1 -105 3 -6 3 -14 36 -18 72 -7 62 -6 66 14 72 21 5 22 10 19 128 l-3
123 -42 9 c-37 7 -43 12 -43 33 0 13 5 24 11 24 5 0 17 16 25 35 10 25 21 35
37 35 12 0 29 5 37 10 19 12 21 12 53 -2z m-3875 -204 c15 2 39 7 54 11 l27 7
3 -143 3 -144 58 -3 58 -3 -2 -47 c-3 -72 -4 -72 -79 -72 -55 0 -70 4 -86 21
-10 12 -29 25 -41 30 -13 5 -23 16 -23 24 0 9 -9 43 -21 77 -27 80 -28 186 -3
239 15 29 20 34 22 19 3 -15 10 -19 30 -16z m268 -621 c18 -12 42 -44 54 -70
12 -27 25 -55 30 -64 5 -9 14 -45 21 -80 7 -35 16 -68 20 -72 4 -5 15 5 25 22
10 17 22 31 26 31 9 0 5 123 -5 131 -10 7 2 39 15 39 21 0 37 -36 38 -80 1
-64 12 -78 38 -46 11 14 23 26 26 26 3 0 6 -40 6 -88 0 -49 3 -92 7 -96 4 -4
6 -27 4 -51 -1 -27 2 -45 8 -45 6 0 11 -11 11 -25 0 -15 7 -28 18 -32 9 -4 23
-13 31 -20 9 -9 24 -12 42 -8 29 7 29 6 29 -39 0 -25 -4 -46 -10 -46 -5 0 -10
9 -10 20 0 11 -4 20 -10 20 -5 0 -10 -11 -10 -24 0 -20 -6 -24 -42 -30 -34 -6
-47 -3 -70 14 -15 11 -32 20 -38 20 -5 0 -10 4 -10 8 0 5 -20 29 -44 54 -43
45 -57 83 -60 168 -2 44 -37 37 -66 -12 -18 -33 -25 -39 -28 -25 -3 13 -11 3
-28 -33 -13 -29 -24 -56 -24 -62 0 -5 -9 -21 -20 -35 -11 -14 -20 -34 -20 -44
0 -10 -17 -31 -37 -46 -33 -25 -46 -28 -130 -31 l-93 -4 0 35 c0 20 4 38 10
42 17 10 -2 35 -27 35 -29 0 -50 43 -65 135 -5 33 -16 89 -23 124 -8 36 -12
68 -9 73 3 4 16 8 30 8 20 0 24 5 24 28 0 26 49 160 50 135 0 -22 20 -14 20 7
0 14 7 20 22 20 12 0 32 10 46 23 17 16 40 23 85 27 67 6 95 -1 143 -37z m442
28 c35 -19 88 -93 112 -159 17 -47 22 -81 21 -139 -1 -42 -5 -80 -10 -83 -14
-9 -43 -79 -37 -89 9 -13 -4 -41 -19 -41 -18 0 -23 28 -17 89 4 41 2 51 -11
51 -12 0 -14 8 -10 40 4 30 -1 53 -22 97 -47 98 -90 132 -142 112 -33 -12 -43
-3 -46 48 -1 32 -5 39 -14 31 -10 -8 -13 -6 -13 6 0 31 58 55 125 52 34 -2 71
-8 83 -15z m-1014 -107 c5 -71 4 -119 -2 -123 -9 -6 -20 -97 -27 -229 l-4 -72
32 0 c45 0 52 -9 53 -62 l1 -48 -134 0 -134 0 3 53 c3 51 4 52 36 55 36 4 32
-25 35 242 l2 135 -32 -3 c-36 -4 -39 5 -27 67 6 28 10 31 45 31 29 0 42 6 59
28 19 24 45 38 76 41 7 1 14 -40 18 -115z m2484 64 c22 -29 51 -75 64 -103 42
-86 61 -120 69 -125 4 -3 7 -21 6 -40 -2 -30 -6 -35 -29 -38 -18 -2 -29 -11
-33 -25 -12 -39 -30 -77 -37 -77 -16 0 -57 -101 -53 -131 3 -23 -3 -41 -23
-65 l-27 -34 -89 0 c-73 0 -87 2 -83 15 6 14 -29 45 -66 58 -20 7 -56 80 -57
114 0 14 -10 26 -31 35 l-31 13 6 80 c11 151 19 175 57 175 12 0 19 -7 19 -20
0 -13 7 -20 19 -20 30 0 42 -25 40 -82 -3 -50 13 -122 31 -142 5 -5 6 -15 3
-22 -3 -8 -1 -14 5 -14 5 0 19 -15 30 -34 20 -33 23 -34 72 -32 34 2 55 8 61
18 5 8 10 63 12 122 4 96 2 110 -16 133 -16 19 -21 44 -24 101 -2 42 -7 80
-12 85 -6 6 -23 1 -44 -12 -41 -25 -62 -20 -82 20 -20 37 -20 36 16 70 29 27
37 29 109 29 l78 0 40 -52z m-568 20 c1 -55 -1 -409 -3 -468 l-2 -65 53 -3 52
-3 0 -45 0 -44 -135 0 -135 0 0 37 c0 20 6 44 14 52 11 12 15 60 18 201 l3
185 -32 3 c-27 3 -33 8 -33 26 0 61 65 133 125 139 22 2 48 4 58 5 11 1 17 -5
17 -20z m-436 6 c14 -5 15 -37 9 -275 l-6 -269 36 0 c30 0 38 -4 43 -24 14
-59 10 -61 -134 -64 l-132 -3 0 41 c0 32 4 40 19 40 38 0 42 20 39 216 l-3
189 -37 3 c-51 4 -54 25 -10 69 20 21 36 43 34 50 -2 7 7 17 20 23 26 10 99
13 122 4z m1399 -49 c-4 -119 -2 -478 3 -486 3 -5 18 -9 35 -9 16 0 29 -5 29
-12 0 -7 3 -30 7 -52 l6 -39 -94 5 c-107 6 -155 25 -165 65 -6 23 2 35 28 45
4 2 8 83 8 182 2 187 0 195 -43 196 -16 0 -18 6 -13 51 3 29 7 53 8 53 2 1 17
11 33 22 44 28 52 30 109 29 l51 0 -2 -50z m411 39 c34 -5 46 -11 42 -20 -3
-8 -6 -125 -6 -261 l-1 -248 23 -3 c65 -8 68 -10 68 -57 l0 -45 -120 0 c-66 0
-120 3 -121 8 -9 64 -6 84 12 100 18 15 19 31 19 204 l0 188 -46 0 -45 0 3 46
c3 39 7 48 33 62 17 9 32 20 33 25 4 9 44 9 106 1z m451 -4 c3 -5 22 -10 42
-10 29 0 34 -3 29 -17 -4 -9 -7 -127 -6 -262 0 -183 3 -247 13 -253 6 -4 27
-8 45 -8 31 0 32 -2 32 -39 0 -49 -6 -51 -130 -51 -122 0 -130 3 -130 46 0 28
5 36 26 44 l26 10 -4 200 c-3 131 -8 204 -16 212 -8 8 -19 8 -42 -2 -17 -7
-33 -10 -36 -7 -4 3 -3 33 1 66 6 55 9 61 30 61 13 0 27 5 30 10 3 6 24 10 45
10 21 0 42 -4 45 -10z m510 -55 c0 -50 3 -60 19 -63 17 -4 18 -11 11 -90 -4
-48 -7 -91 -6 -97 1 -5 4 -48 7 -95 7 -159 6 -155 34 -158 86 -9 90 -11 90
-47 l0 -35 -145 0 -145 0 0 35 c0 29 5 37 26 45 l25 10 -6 162 c-4 90 -11 168
-15 173 -5 6 -10 26 -12 45 -3 33 -5 35 -45 38 -37 3 -43 6 -43 26 0 13 7 29
15 36 8 7 15 28 15 47 l0 34 88 -3 87 -3 0 -60z m-2195 -787 c0 -13 -7 -36
-15 -52 -11 -20 -15 -62 -16 -145 0 -64 -4 -158 -7 -209 l-7 -92 43 0 42 0 0
-65 0 -65 -37 0 c-21 0 -75 -3 -120 -7 l-83 -6 0 87 c0 79 2 88 20 93 17 4 20
14 20 57 0 28 2 105 3 171 2 113 1 120 -18 120 -12 0 -21 -9 -26 -25 -10 -40
-21 -2 -17 65 l3 58 60 18 c33 10 81 18 108 18 42 1 47 -1 47 -21z m1305 16
l47 -7 -3 -256 -4 -256 53 -3 52 -3 0 -60 0 -59 -134 0 -134 0 -4 60 c-3 53
-1 60 17 62 19 3 20 12 23 199 l2 197 -22 6 c-13 3 -35 6 -50 6 -27 0 -28 2
-28 51 0 48 1 51 23 46 12 -3 31 1 41 9 22 15 49 17 121 8z m-1795 -14 c0 -5
10 -10 23 -10 28 0 70 -52 77 -95 4 -23 11 -31 31 -33 35 -4 39 -20 39 -175 0
-97 -3 -128 -12 -125 -18 6 -60 -60 -53 -82 9 -30 -34 -51 -118 -57 -41 -3
-91 -3 -111 1 -30 6 -36 10 -31 26 4 13 -2 25 -22 40 -16 11 -38 41 -48 65
-15 33 -27 46 -47 50 -15 4 -26 11 -25 17 1 6 -2 12 -8 14 -6 2 -11 -19 -13
-48 -2 -54 -9 -64 -52 -75 -30 -7 -40 -20 -40 -53 -1 -50 -22 -75 -70 -80 -42
-5 -45 -7 -43 -32 2 -26 -1 -28 -37 -28 -32 0 -39 4 -42 23 -2 14 -11 23 -25
25 -21 3 -39 34 -35 59 2 7 -4 29 -13 49 -10 25 -15 70 -15 149 0 99 2 113 18
117 10 3 25 26 35 56 11 31 38 72 65 101 31 33 46 57 44 70 -3 20 1 21 71 21
66 0 75 -2 80 -20 3 -11 12 -20 21 -20 10 0 19 -11 22 -30 4 -16 10 -27 15
-24 5 3 18 -11 30 -30 24 -40 64 -50 77 -18 4 10 21 39 37 65 27 42 34 47 67
47 29 0 41 6 54 25 16 24 54 35 54 15z m909 -237 l-4 -248 43 -3 42 -3 0 -70
0 -69 -138 0 -138 0 2 63 c1 62 1 62 33 65 l31 3 -2 182 -3 182 -43 3 -42 3 2
39 c3 33 8 41 31 49 17 7 27 17 27 30 0 19 6 21 81 21 l82 0 -4 -247z m451 -8
l0 -255 50 0 50 0 0 -65 0 -65 -130 0 -130 0 0 43 c0 23 -3 51 -6 62 -3 14 2
23 18 30 23 10 23 13 24 169 0 225 -4 240 -61 214 -40 -18 -53 3 -26 40 11 17
21 42 21 56 l0 26 95 0 95 0 0 -255z m950 10 c0 -231 1 -245 19 -255 11 -5 28
-10 39 -10 21 0 32 -33 32 -96 l0 -34 -135 0 -135 0 0 53 c0 61 7 74 40 78
l25 4 0 185 0 185 -53 3 -53 3 3 57 3 57 40 6 c22 3 70 7 108 8 l67 1 0 -245z
m-4072 175 c0 -33 -5 -63 -9 -66 -4 -2 -6 -11 -3 -18 6 -15 -23 -115 -37 -130
-5 -6 -9 -52 -9 -102 0 -78 3 -95 18 -106 33 -24 52 -62 52 -105 l0 -43 -118
0 c-78 0 -122 4 -130 12 -7 7 -12 35 -12 64 0 49 1 51 33 61 26 7 32 14 29 34
-1 18 0 21 8 9 23 -36 31 8 28 161 l-3 154 -42 3 c-45 3 -60 25 -23 35 16 4
20 14 20 44 0 22 3 43 7 46 3 4 48 7 99 7 l93 0 -1 -60z m432 11 c0 -28 -4
-52 -8 -55 -5 -3 -8 -90 -8 -193 l1 -188 28 -3 c27 -3 27 -4 27 -73 l0 -69
-125 0 -125 0 0 69 0 70 33 3 c30 3 32 6 39 53 8 66 9 200 1 248 -4 27 -12 41
-28 47 -17 7 -23 19 -28 57 -8 77 -1 83 103 83 l90 0 0 -49z m470 11 c0 -20
-5 -53 -10 -72 -6 -19 -11 -110 -12 -201 -1 -157 1 -168 20 -189 16 -18 19
-27 11 -42 -5 -10 -7 -23 -4 -28 3 -5 3 -21 -1 -35 -6 -25 -7 -25 -115 -25
l-109 0 0 69 c0 68 0 69 30 74 39 8 45 33 44 182 0 152 -6 174 -44 182 -29 5
-30 7 -30 64 l0 59 110 0 110 0 0 -38z m3622 -204 l3 -243 43 3 42 3 0 -70 0
-71 -125 0 -125 0 0 25 c0 14 11 47 25 74 25 46 25 54 23 202 l-3 154 -52 3
c-37 2 -53 7 -53 17 0 13 18 104 26 133 2 8 31 12 99 12 l95 0 2 -242z m-887
-595 c22 -1 48 -3 57 -3 10 -1 23 -19 34 -46 16 -43 18 -44 60 -44 42 0 44 1
44 29 0 44 23 61 81 61 l51 0 -4 37 c-3 35 -1 38 27 40 63 6 93 -6 111 -43 20
-42 65 -78 119 -96 l40 -13 12 -120 c6 -65 9 -123 7 -127 -3 -4 -7 -24 -9 -45
-9 -73 -17 -93 -42 -113 -34 -26 -45 -25 -37 4 3 13 1 27 -5 30 -7 5 -8 1 -4
-10 5 -15 4 -15 -15 1 -11 10 -18 24 -15 31 6 17 19 18 26 4 3 -6 4 -5 3 2 -1
7 -18 15 -37 18 l-34 5 -3 137 c-3 137 -3 137 -30 156 -33 23 -73 20 -112 -8
l-30 -21 0 -198 c0 -140 3 -200 12 -209 7 -7 43 -12 91 -12 l79 0 -7 -37 c-4
-21 -8 -45 -9 -53 -3 -35 -34 -50 -106 -50 l-70 0 0 43 c0 33 -8 52 -39 94
-64 83 -64 86 -71 263 l-7 165 -1 -125 c-3 -172 -2 -170 -68 -170 -42 0 -52 3
-48 14 3 9 -3 20 -15 28 -12 7 -21 17 -21 21 0 5 -7 15 -15 23 -12 12 -15 41
-15 125 l0 109 -75 0 -75 0 0 -40 c0 -22 -2 -40 -4 -40 -2 0 -12 -3 -21 -6 -9
-4 -15 -3 -13 2 3 9 -5 14 -22 14 -16 0 -12 -47 4 -53 38 -15 51 -58 56 -191
l5 -131 80 -5 c44 -3 86 -9 93 -13 20 -13 14 -35 -10 -39 -19 -2 -24 -10 -26
-41 l-3 -38 -77 3 c-57 2 -76 6 -74 16 4 22 -68 106 -101 118 -24 9 -31 17
-30 33 4 28 -18 69 -51 100 -21 20 -26 34 -26 74 0 41 3 48 16 43 11 -4 18 1
21 14 3 11 9 17 14 14 5 -3 9 2 9 10 0 9 -5 16 -11 16 -6 0 -9 9 -7 21 3 18
22 33 78 59 10 5 14 19 12 43 -2 19 4 49 13 66 8 17 14 34 13 37 -2 4 24 9 57
11 84 5 85 6 85 58 0 29 6 51 18 63 16 16 17 14 22 -48 l5 -65 40 -2z m-3420
50 c7 -17 19 -23 50 -25 34 -3 40 -7 43 -28 2 -14 10 -32 17 -40 38 -44 70
-127 73 -192 4 -62 2 -70 -19 -88 -13 -10 -34 -19 -46 -20 -18 0 -23 -6 -23
-27 0 -55 -10 -73 -41 -73 l-29 0 0 149 c0 143 -1 149 -25 175 -13 14 -34 26
-47 26 -65 -1 -94 -93 -85 -266 5 -100 7 -108 34 -137 16 -18 42 -49 57 -69
15 -22 36 -38 47 -38 30 0 23 -32 -15 -62 -60 -48 -123 -50 -144 -3 -6 14 -19
25 -27 25 -35 0 -73 30 -80 62 -4 18 -12 42 -19 53 -18 29 -39 155 -40 233
l-1 67 30 1 c17 0 37 4 45 7 10 4 24 -7 42 -33 15 -22 32 -40 38 -40 19 0 24
32 6 45 -9 7 -14 19 -10 28 3 10 -2 18 -15 22 -27 8 -28 51 -2 64 17 9 20 6
29 -27 10 -37 10 -37 11 20 1 31 6 60 12 64 6 3 9 23 7 43 -4 28 0 40 18 54
13 9 26 27 29 38 9 28 66 23 80 -8z m1495 -3 c53 -14 68 -30 88 -85 17 -46 21
-50 57 -57 49 -8 81 10 101 57 7 18 30 47 50 63 33 28 42 30 88 25 72 -7 101
-30 101 -79 0 -39 0 -39 40 -39 49 0 59 -6 80 -48 20 -37 32 -221 21 -309 l-7
-55 -47 -7 c-26 -3 -56 -7 -67 -8 -19 -3 -20 4 -25 184 -4 132 -9 191 -18 200
-7 7 -44 14 -82 16 -68 4 -70 4 -71 -19 0 -13 0 -97 1 -187 1 -153 3 -166 26
-207 13 -24 24 -53 24 -64 0 -19 6 -21 54 -21 l54 0 5 -37 c6 -55 -13 -73 -81
-73 -44 0 -52 2 -43 13 8 11 6 16 -12 24 -12 6 -38 39 -56 74 -18 35 -41 73
-51 84 -17 19 -50 103 -50 126 0 6 -9 22 -20 36 -15 19 -20 21 -20 9 0 -9 -4
-16 -10 -16 -5 0 -10 -6 -10 -14 0 -8 -16 -33 -35 -56 -19 -23 -35 -47 -35
-54 0 -7 -15 -26 -32 -44 l-33 -31 2 114 c1 68 -2 115 -7 115 -6 0 -10 45 -10
104 0 80 -4 108 -15 120 -26 26 -52 28 -99 6 -45 -20 -55 -33 -36 -45 6 -4 10
-82 10 -201 0 -184 1 -195 21 -215 18 -18 30 -21 80 -17 36 3 60 0 62 -6 3 -6
-2 -32 -11 -58 l-15 -48 -64 0 c-62 0 -65 1 -104 43 -22 23 -55 75 -74 114
-19 40 -42 81 -52 92 -29 30 -79 51 -125 51 -24 0 -48 4 -55 8 -6 4 -14 51
-18 110 -7 92 -6 105 11 123 12 14 25 18 41 14 13 -3 23 -1 23 4 0 20 -41 31
-118 31 -64 0 -81 -3 -86 -16 -8 -20 -6 -275 3 -369 l6 -70 48 -22 c47 -23 47
-23 47 -73 0 -45 -2 -50 -26 -56 -14 -4 -48 -4 -76 -1 -60 7 -114 54 -155 132
-25 50 -25 51 -19 228 4 134 10 187 22 213 9 19 20 34 25 34 5 0 9 5 9 12 0
14 81 88 98 88 6 0 12 7 12 15 0 8 3 15 8 15 4 1 46 3 95 7 59 3 87 2 87 -6 0
-5 14 -25 31 -42 18 -18 40 -52 51 -76 10 -23 28 -48 39 -53 17 -10 26 -5 63
37 72 80 96 110 96 121 0 30 115 43 190 22z m-1926 -128 c4 -60 5 -124 1 -143
-5 -26 -2 -41 14 -61 25 -31 27 -51 7 -67 -8 -7 -17 -34 -21 -60 -5 -38 -2
-60 15 -100 13 -28 28 -51 34 -51 6 0 21 -8 34 -18 18 -14 22 -24 17 -45 l-7
-27 -164 0 -164 0 0 40 c0 36 2 40 33 45 27 5 36 15 60 65 25 54 27 70 28 182
1 68 5 130 9 138 5 9 5 22 0 30 -7 11 -11 11 -24 1 -8 -7 -25 -11 -38 -9 -32
4 -27 45 10 78 16 14 41 44 57 68 23 35 33 42 60 42 l32 0 7 -108z m920 82 c3
-9 6 -103 6 -210 0 -123 4 -194 10 -194 6 0 10 12 10 26 0 20 4 25 16 20 9 -3
27 -6 41 -6 20 0 24 -4 21 -22 -2 -14 -11 -24 -23 -26 -67 -10 -65 -8 -65 -77
l0 -65 46 0 45 0 -3 -42 c-3 -43 -3 -43 -45 -46 -24 -2 -43 -7 -43 -12 0 -5
-55 -9 -125 -9 l-125 1 -6 33 c-11 62 -5 69 61 75 l60 5 3 165 c3 178 -10 275
-34 266 -8 -3 -14 -2 -14 2 0 10 29 49 53 70 9 9 17 21 17 27 0 34 82 50 94
19z m1956 -25 c0 -23 5 -32 20 -36 18 -5 19 -10 13 -42 -8 -38 -8 -115 1 -241
3 -41 0 -99 -6 -127 -10 -47 -9 -55 7 -73 10 -11 32 -24 49 -28 28 -7 31 -13
34 -50 l3 -42 -85 0 c-51 0 -88 4 -92 11 -4 7 -20 8 -43 4 -20 -3 -57 -9 -83
-11 l-48 -6 0 36 c0 27 6 38 23 47 35 18 67 51 67 70 0 9 7 30 15 45 16 31 20
144 8 253 -5 50 -12 68 -35 91 -37 37 -35 48 7 56 30 5 35 10 35 33 0 37 6 41
62 41 47 0 48 -1 48 -31z m471 -16 c1 -21 3 -170 5 -330 l3 -293 -114 0 c-63
0 -116 4 -120 9 -3 6 -3 28 1 50 5 31 12 42 33 49 14 5 32 22 40 38 7 16 18
38 24 49 6 11 12 80 13 153 l3 132 -38 0 c-50 0 -67 20 -55 62 7 22 17 34 34
38 20 5 26 13 28 43 l3 37 70 0 69 0 1 -37z m1443 21 c22 -8 21 -64 -1 -104
-14 -25 -15 -34 -5 -37 22 -8 42 -74 42 -142 1 -42 6 -73 15 -85 21 -27 19
-40 -7 -51 -19 -8 -23 -19 -26 -67 l-3 -58 66 0 65 0 0 -50 0 -50 -139 0 c-83
0 -142 -4 -146 -10 -8 -14 -47 -12 -66 3 -14 11 -15 19 -5 60 9 41 14 47 37
47 15 0 31 6 37 13 19 24 33 140 32 277 -1 81 -4 97 -21 112 -15 13 -19 29
-19 82 l0 66 64 0 c35 0 71 -3 80 -6z m-1264 -521 c2 -2 6 -32 8 -67 l4 -63
-52 -2 -52 -1 7 52 c10 68 30 101 59 92 11 -4 23 -8 26 -11z m760 -276 c0 -7
16 -21 36 -32 20 -11 43 -30 51 -42 9 -13 23 -23 33 -23 28 0 58 -45 65 -97 5
-36 16 -65 23 -58 4 4 14 34 22 67 16 65 42 94 90 102 17 2 24 9 22 20 -2 9 2
16 8 16 5 0 10 11 10 25 0 24 2 25 73 25 l74 0 24 -37 c13 -20 42 -46 63 -58
33 -18 41 -30 52 -71 7 -27 17 -62 23 -77 6 -16 11 -70 11 -121 0 -100 -12
-125 -60 -129 -12 -1 -26 -10 -32 -21 -11 -20 -11 -20 -19 -1 -5 12 -6 1 -3
-27 l6 -48 -34 0 -34 0 3 63 c1 34 4 126 6 204 4 162 12 150 -94 145 l-69 -4
0 -130 c0 -133 -7 -158 -43 -158 -8 0 -17 -7 -21 -15 -4 -12 -12 -9 -36 14
-23 21 -33 40 -37 72 l-6 44 -11 -45 -11 -45 -77 -3 -77 -2 -3 142 -3 143 -75
0 -75 0 -1 -169 c-1 -125 2 -176 12 -195 8 -14 14 -31 14 -38 0 -30 32 -44 85
-38 l52 7 7 -32 c15 -79 15 -80 -72 -80 -91 0 -107 10 -118 78 -6 38 -9 42
-35 42 -28 0 -29 2 -29 50 0 38 -4 50 -15 50 -10 0 -15 10 -15 30 0 23 -4 30
-20 30 -11 0 -21 6 -22 13 -6 52 -7 79 -2 130 5 49 10 60 30 69 15 7 24 20 24
35 0 18 5 23 24 23 28 0 56 24 56 46 0 9 9 37 21 64 18 42 26 49 52 53 63 8
77 7 77 -6z m-2820 -78 c75 -79 77 -82 84 -141 15 -150 -2 -289 -35 -279 -8 3
-37 7 -66 9 l-52 4 -3 155 c-3 176 -8 186 -83 181 -39 -3 -40 -4 -47 -48 -3
-25 -7 -78 -7 -117 l-1 -73 -35 0 c-24 0 -37 -6 -45 -21 -17 -30 -7 -44 45
-65 l46 -19 -2 -60 -2 -60 29 2 c16 1 46 4 68 8 30 4 41 2 52 -12 17 -23 17
-33 1 -33 -8 0 -18 -17 -23 -37 -11 -43 -33 -52 -131 -56 -72 -2 -113 21 -124
69 -4 16 -13 42 -22 58 -8 16 -13 34 -10 41 2 7 -3 27 -12 44 -10 21 -12 31
-4 31 8 0 10 15 7 45 -3 25 3 85 13 137 10 51 19 102 19 114 0 22 32 58 43 48
3 -3 4 -23 1 -45 l-5 -39 33 6 c62 11 61 10 55 66 -7 60 -9 63 -34 50 -12 -7
-25 -7 -34 -2 -21 14 0 42 42 56 18 6 35 18 37 25 2 8 5 20 7 27 3 8 24 12 61
12 l57 0 77 -81z m940 58 c0 -31 18 -51 60 -67 55 -21 60 -28 60 -84 0 -29 5
-57 12 -64 8 -8 11 -46 10 -114 -2 -127 -8 -155 -33 -163 -10 -4 -19 -12 -19
-18 0 -7 -8 2 -19 19 -16 27 -23 30 -55 26 -41 -5 -41 -8 -36 129 4 138 -31
202 -117 213 -37 5 -54 3 -60 -6 -4 -7 -6 -96 -5 -198 3 -176 5 -186 25 -202
12 -10 32 -18 45 -18 12 0 22 -6 22 -12 1 -33 35 -58 83 -59 43 -2 47 -4 41
-23 -10 -32 -23 -44 -54 -51 -16 -3 -34 -13 -41 -21 -6 -8 -25 -14 -42 -14
-39 0 -114 36 -128 61 -6 12 -8 93 -6 217 2 115 1 159 -3 106 -7 -98 -17 -128
-32 -100 -5 9 -15 16 -23 16 -22 0 -28 43 -22 137 6 84 24 133 50 133 6 0 32
18 56 39 43 37 45 40 42 90 l-2 51 96 0 c93 0 95 -1 95 -23z m-2451 -219 c-1
-123 -6 -218 -12 -225 -6 -9 -5 -18 3 -28 6 -8 9 -19 5 -25 -3 -5 -3 -30 1
-55 6 -41 9 -45 35 -45 30 0 49 -23 49 -59 0 -20 -5 -21 -155 -21 l-155 0 -1
30 c-1 17 -2 36 -3 43 -1 8 14 12 44 13 l45 0 3 77 c2 42 7 77 12 77 6 0 10
57 10 140 0 87 -4 140 -10 140 -5 0 -10 -11 -10 -25 0 -29 -28 -35 -36 -7 -3
9 -10 25 -15 35 -9 18 7 57 24 57 5 0 32 20 59 45 35 32 59 45 79 45 l30 0 -2
-212z m481 185 c0 -37 -14 -57 -34 -50 -12 5 -16 0 -16 -17 0 -18 7 -25 31
-30 l32 -6 -4 -222 -4 -222 33 -9 c29 -9 32 -14 32 -48 l0 -39 -155 0 c-169 0
-165 -2 -149 58 5 16 14 22 34 22 15 0 38 8 50 18 22 18 23 27 28 190 l5 172
-26 0 c-14 0 -29 5 -32 10 -4 7 -11 7 -18 2 -24 -18 -47 -10 -47 17 0 39 14
54 51 55 28 1 35 6 42 31 23 75 43 92 115 94 29 1 32 -2 32 -26z m440 10 c3
-2 5 -130 5 -284 l-1 -279 48 0 c42 0 48 -3 54 -24 3 -13 1 -34 -6 -45 -11
-21 -17 -21 -158 -19 l-146 3 -7 35 c-9 41 0 50 54 50 35 0 37 2 38 33 1 17 4
97 8 177 l6 145 25 4 c49 6 43 41 -7 41 -14 0 -23 -6 -23 -15 0 -17 -39 -35
-76 -35 -22 0 -25 4 -22 32 2 25 14 41 55 73 40 31 55 50 65 83 12 43 13 43
48 37 19 -4 37 -9 40 -12z m1011 3 c1 0 5 -131 8 -291 l6 -290 31 -3 c24 -2
31 -7 28 -20 -2 -9 0 -24 6 -32 9 -13 11 -13 20 0 7 11 10 7 10 -18 0 -30 -2
-32 -27 -26 -16 3 -40 10 -55 16 -26 10 -115 6 -190 -7 -38 -7 -38 -7 -38 28
0 38 11 51 53 61 l27 6 -2 188 -3 187 -37 3 c-35 3 -38 6 -38 33 0 21 13 45
40 78 22 26 40 57 40 69 0 17 7 21 43 24 35 2 73 0 78 -6z m1452 -13 c3 -16 6
-89 7 -163 0 -76 5 -136 10 -138 14 -5 12 -50 -2 -54 -14 -5 -20 -181 -7 -215
8 -21 15 -23 94 -23 l85 0 0 -30 0 -30 -195 0 -195 0 0 35 c0 33 2 35 35 35
20 0 38 6 40 13 8 24 14 347 6 352 -5 2 -11 18 -14 35 -6 27 -10 30 -47 30
-22 0 -40 5 -40 11 0 33 64 109 92 109 10 0 21 8 25 18 12 33 26 42 63 42 33
0 38 -3 43 -27z m-471 -10 c1 -16 3 -68 5 -118 1 -49 5 -125 8 -169 4 -51 3
-82 -4 -89 -6 -6 -11 -49 -11 -99 l0 -88 65 0 64 0 7 -35 c3 -20 5 -38 2 -40
-2 -2 -67 -4 -143 -5 -214 -2 -195 -4 -195 30 0 30 10 35 68 33 9 -1 12 46 12
202 l0 204 -32 3 c-33 3 -33 3 -36 64 -3 57 -1 62 21 67 12 4 36 20 53 36 23
24 38 31 72 31 39 0 42 -2 44 -27z m958 -263 l0 -290 51 0 50 0 -3 -47 c-2
-31 -7 -48 -15 -47 -7 1 -74 2 -148 3 l-135 1 0 25 c0 18 8 29 28 38 15 6 30
16 35 22 17 23 2 435 -15 435 -6 0 -19 -11 -30 -25 -26 -34 -38 -31 -38 8 0
25 13 48 56 100 l56 67 54 0 54 0 0 -290z m945 -325 l0 -60 -65 0 -65 0 -8 35
c-6 22 -5 45 2 63 10 27 13 28 73 25 l63 -3 0 -60z m-965 -249 c7 -18 18 -26
42 -28 31 -3 34 -6 42 -49 7 -39 14 -49 40 -60 l31 -14 3 -147 c3 -193 -8
-226 -80 -219 -23 3 -68 -60 -75 -104 -4 -25 -12 -39 -25 -43 -10 -2 -21 -15
-24 -28 -5 -21 -12 -24 -49 -24 -42 0 -44 1 -48 33 l-3 32 -9 -33 c-6 -26 -12
-32 -29 -30 -16 2 -21 10 -21 33 -1 29 -3 30 -50 35 l-50 5 -8 95 c-4 52 -12
103 -17 113 -22 38 -22 100 -1 142 12 21 21 54 21 73 0 18 7 40 15 48 8 9 15
25 15 36 0 17 4 20 30 14 32 -6 31 -7 55 62 3 7 10 10 15 7 8 -5 7 -11 -1 -21
-6 -8 -8 -18 -4 -22 4 -4 10 -1 12 6 3 6 11 12 19 12 19 0 47 28 61 62 11 24
27 32 71 37 7 0 17 -10 22 -23z m987 -8 c15 -13 45 -32 66 -42 20 -11 37 -26
37 -34 0 -9 10 -26 21 -38 13 -13 23 -39 24 -61 2 -21 6 -89 10 -151 l7 -112
-32 -30 c-36 -34 -45 -36 -66 -15 -8 8 -21 12 -29 9 -23 -9 -35 61 -35 213 0
115 -3 144 -16 157 -29 30 -154 12 -154 -21 0 -7 -4 -13 -9 -13 -5 0 -18 -26
-28 -57 -18 -57 -19 -58 -53 -55 -44 5 -50 14 -50 79 0 63 16 76 88 71 l47 -3
5 40 c8 67 27 85 87 85 38 0 59 -6 80 -22z m-3459 -7 c2 -6 9 -11 17 -11 7 0
20 -10 28 -22 15 -22 16 -22 17 -3 1 11 10 -9 20 -45 13 -45 19 -97 20 -168 0
-95 -2 -107 -30 -162 -17 -34 -37 -60 -46 -60 -27 0 -44 63 -44 162 0 72 -4
99 -17 118 -34 48 -55 68 -79 74 -20 5 -24 12 -22 34 3 25 0 27 -40 30 l-43 3
3 -200 3 -200 33 -32 c25 -25 30 -35 21 -45 -21 -25 -2 -44 44 -44 24 0 48 5
54 11 20 20 43 2 43 -33 0 -23 -9 -42 -32 -65 -27 -28 -39 -33 -79 -33 -28 0
-51 6 -58 14 -7 8 -26 18 -42 21 -16 4 -32 11 -35 16 -3 6 -17 14 -30 19 -14
6 -24 18 -24 29 0 11 -4 23 -10 26 -5 3 -10 -1 -10 -10 0 -9 -4 -13 -10 -10
-5 3 -10 19 -10 35 0 17 -8 34 -19 42 -13 9 -20 29 -22 66 -2 28 -1 52 2 52 3
0 3 27 1 60 -2 33 -2 66 1 75 11 26 37 4 43 -36 6 -36 9 -39 39 -39 21 0 35 6
39 16 3 9 6 80 6 159 0 79 3 151 7 161 6 15 19 16 132 11 77 -3 127 -9 129
-16z m524 -8 c15 -16 41 -55 58 -87 l31 -59 -1 -181 c-1 -161 -3 -186 -22
-224 -12 -27 -31 -48 -47 -54 -14 -6 -38 -16 -53 -24 -14 -8 -49 -14 -76 -14
-53 0 -62 -8 -62 -56 0 -38 -18 -28 -22 12 -3 40 -10 45 -77 65 -73 22 -83 48
-77 209 5 150 29 343 47 378 12 21 49 31 49 13 0 -15 41 -24 52 -13 16 16 38
3 38 -22 0 -11 -7 -34 -16 -51 -13 -24 -17 -67 -18 -230 l-1 -200 47 -3 c26
-2 57 2 69 9 22 11 22 14 16 191 -5 150 -9 183 -23 199 -16 18 -20 34 -23 92
-1 20 -7 31 -21 34 -11 3 -20 14 -20 24 0 17 8 19 63 19 56 0 66 -3 89 -27z
m1399 5 c17 -13 40 -39 52 -58 21 -33 22 -47 22 -233 0 -219 1 -222 63 -213
20 3 30 1 26 -5 -3 -6 -9 -31 -13 -57 l-6 -47 -70 -8 c-38 -5 -98 -6 -132 -2
l-63 7 0 53 c0 49 2 54 28 63 l29 10 6 162 c3 90 3 169 0 175 -2 7 -22 15 -43
19 l-38 6 16 33 c15 29 82 116 90 117 2 0 16 -10 33 -22z m-3451 -23 c4 -25
10 -30 39 -33 l33 -3 -3 -217 -4 -217 28 -3 c26 -3 27 -6 27 -58 l0 -54 -130
0 -130 0 0 54 c0 58 11 71 55 60 22 -5 23 -3 29 83 10 139 11 251 3 260 -5 4
-22 6 -40 5 -56 -4 -63 8 -41 75 17 51 23 60 54 70 53 19 74 13 80 -22z m546
-175 c3 -315 0 -290 29 -290 24 0 25 -3 25 -60 0 -72 0 -72 -150 -68 l-105 3
-3 34 c-6 57 6 101 27 101 10 0 28 8 40 18 21 16 22 24 19 172 l-3 155 -42 3
c-30 2 -43 8 -43 18 0 25 30 74 45 74 8 0 15 5 15 10 0 17 42 29 95 27 l50 -2
1 -195z m408 194 c14 -5 16 -35 16 -230 l0 -224 31 0 31 0 -5 -57 c-4 -32 -6
-68 -7 -81 0 -22 -2 -23 -102 -20 l-103 3 -8 55 c-11 74 -4 98 31 102 l27 3 0
145 0 145 -27 13 c-24 11 -28 19 -28 52 0 47 17 87 39 93 26 7 88 8 105 1z
m1644 0 c16 -5 22 -14 22 -33 0 -34 17 -51 51 -51 20 0 32 -9 49 -37 19 -32
21 -51 22 -189 0 -83 -3 -157 -6 -163 -4 -6 -18 -8 -32 -5 -14 4 -31 1 -39 -6
-18 -15 -20 -14 -29 22 -3 15 -2 30 4 33 16 10 13 238 -2 233 -7 -3 -15 -20
-18 -38 -10 -67 -47 -46 -54 30 -6 64 -29 90 -83 90 -70 0 -69 2 -67 -199 2
-99 5 -185 9 -191 3 -5 35 -10 71 -10 l64 0 0 -54 c0 -39 -4 -55 -15 -60 -8
-3 -15 -17 -15 -31 0 -24 -3 -25 -59 -25 l-60 0 -3 42 c-3 38 -28 69 -28 34 0
-13 -12 -16 -61 -16 l-61 0 4 239 c3 222 4 241 23 261 11 12 29 40 40 63 15
29 31 44 55 53 37 13 179 18 218 8z m464 -236 l3 -243 23 -3 c20 -3 22 -9 22
-67 l0 -63 -67 -4 c-38 -2 -92 -2 -121 0 l-53 4 2 41 c2 69 9 95 28 100 23 6
27 29 25 152 -3 192 -1 185 -29 195 -32 12 -33 49 -4 96 20 34 21 34 95 34
l74 0 2 -242z m1357 218 c28 -30 32 -60 34 -276 l2 -175 33 -3 33 -3 -7 -62
c-4 -34 -9 -65 -11 -69 -2 -5 -53 -8 -113 -8 -89 0 -109 3 -114 16 -12 31 -6
72 16 99 21 26 22 37 19 151 -2 109 -1 124 17 140 28 27 34 65 15 86 -21 24
-42 23 -70 -4 l-23 -21 0 39 c0 29 8 49 31 77 26 32 36 37 73 37 32 0 48 -6
65 -24z m-3209 -153 c-8 -3 -22 -9 -31 -14 -11 -6 -21 -4 -29 6 -11 13 -6 15
31 14 24 0 37 -3 29 -6z m3590 -131 c27 -20 29 -27 32 -94 2 -52 7 -72 16 -70
6 1 12 -6 12 -16 0 -10 7 -28 16 -41 15 -21 22 -22 88 -18 39 3 83 8 99 12 21
6 27 4 27 -9 0 -9 -5 -16 -11 -16 -5 0 -35 -27 -66 -60 -60 -64 -75 -69 -143
-50 -19 5 -53 26 -74 45 -22 19 -43 35 -48 35 -4 0 -8 9 -8 19 0 20 -25 35
-42 25 -20 -13 -28 23 -28 140 l0 118 30 -4 c17 -3 30 -1 30 4 0 14 39 3 70
-20z m-168 -539 c3 -48 3 -48 43 -53 38 -5 41 -8 78 -80 21 -41 42 -76 47 -78
6 -2 10 -58 10 -127 l0 -123 -30 -7 c-16 -4 -30 -11 -30 -16 0 -5 -22 -9 -49
-9 l-48 0 -7 156 c-10 203 -20 224 -113 224 l-53 0 5 -191 c6 -207 14 -242 61
-259 14 -6 37 -10 52 -10 15 0 37 -8 50 -18 20 -15 23 -26 20 -68 l-3 -49 -71
-3 c-65 -3 -72 -1 -77 18 -3 12 -13 20 -26 20 -14 0 -26 13 -40 46 l-20 45
-68 -3 -68 -3 0 55 c0 58 -7 70 -41 70 -18 0 -22 8 -27 47 -3 27 -3 51 0 55 2
5 20 8 39 8 21 0 33 4 29 10 -8 14 8 13 22 -1 18 -18 30 -3 38 48 7 50 16 135
16 166 0 13 9 17 40 17 l39 0 0 60 c0 59 1 60 28 61 15 0 47 9 72 19 71 30 78
27 82 -27z m-4082 12 c0 -8 4 -15 8 -15 14 0 58 -43 65 -62 4 -10 21 -27 39
-38 47 -28 67 -97 68 -226 0 -97 -1 -101 -24 -114 -14 -7 -26 -22 -28 -34 -3
-24 -41 -34 -62 -17 -13 11 -34 93 -40 161 -2 19 -11 60 -19 90 -9 30 -19 68
-22 83 -8 37 -38 47 -103 34 l-53 -11 6 -141 c3 -77 8 -177 11 -222 l6 -83 58
0 58 0 -1 -65 -2 -65 -82 0 -83 0 0 34 c0 30 -4 35 -28 41 -21 4 -32 16 -42
40 -8 21 -21 35 -31 35 -36 0 -44 28 -47 171 l-4 139 31 17 c18 10 34 29 38
43 8 36 22 50 48 50 18 0 24 7 29 40 5 31 11 41 31 46 14 3 25 13 25 20 0 8 7
26 16 39 14 22 24 25 75 25 46 0 59 -3 59 -15z m1036 0 c4 -8 12 -15 20 -15
24 0 64 -23 69 -40 3 -10 29 -41 58 -70 l52 -52 0 -146 0 -147 -50 -2 c-56 -3
-69 -14 -87 -78 -7 -22 -20 -51 -30 -64 -11 -14 -18 -41 -18 -67 l0 -44 -70 0
c-70 0 -71 0 -76 30 -5 20 -12 30 -25 30 -25 0 -49 27 -49 56 0 19 -5 24 -25
24 -40 0 -65 33 -65 85 0 27 -5 48 -12 50 -9 4 -12 26 -10 78 4 79 21 110 69
122 16 4 23 11 19 20 -3 8 -1 15 4 15 6 0 10 8 10 19 0 10 13 28 29 40 26 20
29 27 25 66 -6 49 11 72 57 82 16 3 32 10 35 14 9 15 64 10 70 -6z m-548 -17
c5 -7 13 -38 17 -69 6 -46 4 -57 -9 -62 -17 -7 -22 -37 -7 -37 19 0 23 -41 7
-59 -21 -23 -20 -33 5 -54 15 -14 19 -27 17 -60 -3 -35 -7 -43 -26 -45 -21 -3
-23 -8 -20 -50 2 -38 8 -49 26 -57 19 -9 22 -17 22 -72 0 -60 1 -63 24 -63 43
0 56 -10 56 -45 0 -37 -12 -44 -65 -40 -16 1 -72 3 -122 3 -90 2 -93 3 -93 25
0 13 -13 34 -28 47 -38 33 -32 60 14 60 31 0 34 3 34 30 0 16 7 33 16 38 12 7
17 32 20 116 5 122 0 136 -52 136 l-34 0 3 75 2 75 58 0 57 0 0 38 c0 64 9 82
40 82 15 0 32 -6 38 -12z m-1020 -295 l-3 -298 38 -3 c34 -3 37 -5 37 -35 0
-18 3 -42 6 -54 6 -22 3 -23 -43 -23 -28 0 -58 6 -69 15 -25 19 -43 19 -66 -2
-14 -13 -21 -14 -30 -5 -7 7 -38 12 -71 12 -83 0 -97 10 -97 69 0 58 6 62 80
50 79 -13 80 -10 79 193 l0 168 -60 0 c-42 0 -61 4 -65 14 -9 24 15 56 41 56
24 0 97 72 117 116 8 16 20 21 60 23 l50 2 -4 -298z m2592 265 c0 -18 1 -150
3 -293 l2 -260 53 -3 52 -3 0 -60 0 -60 -157 3 -158 3 0 55 0 55 43 3 42 3 0
132 c0 73 4 149 9 169 11 45 0 58 -50 58 -41 0 -49 13 -49 83 l0 37 49 0 c52
0 63 8 78 55 9 28 43 55 71 55 7 0 12 -13 12 -32z m908 26 l23 -6 -1 -257 c0
-141 0 -271 0 -288 0 -32 1 -33 44 -33 50 0 56 -8 56 -75 0 -32 -4 -44 -17
-47 -23 -6 -45 1 -37 13 8 14 -6 10 -22 -6 -12 -12 -41 -15 -125 -15 l-109 0
0 60 0 59 35 7 35 6 0 183 c0 200 0 201 -60 207 -19 2 -35 8 -35 14 0 24 85
107 117 113 25 5 34 13 37 31 5 36 19 44 59 34z m657 -14 c14 -16 16 -23 7
-32 -7 -7 -12 -22 -12 -34 0 -20 4 -22 39 -17 35 5 39 3 47 -23 14 -42 6 -164
-11 -164 -7 0 -18 -7 -25 -15 -7 -8 -17 -12 -23 -8 -6 4 -7 1 -1 -8 15 -24 14
-42 -1 -29 -11 9 -12 7 -9 -7 5 -16 0 -19 -33 -19 -21 1 -52 -2 -69 -6 -30 -7
-32 -5 -38 30 -3 20 -6 83 -6 140 l0 103 -67 -3 -68 -3 2 -190 c2 -104 5 -204
8 -222 5 -31 7 -31 68 -35 34 -2 76 0 92 4 17 4 42 10 58 13 26 5 27 7 20 48
-3 23 -13 48 -22 55 -13 10 -8 12 34 10 40 -3 50 -6 49 -20 0 -10 -1 -47 -2
-83 l-2 -65 -59 0 c-36 0 -61 5 -63 12 -3 8 -12 8 -33 1 -29 -9 -30 -12 -33
-81 l-3 -72 -69 0 c-67 0 -70 1 -70 24 0 27 -24 56 -45 56 -7 0 -15 10 -17 23
-2 17 -11 23 -38 27 -42 6 -60 36 -60 102 0 28 -5 48 -12 50 -9 3 -13 26 -12
69 2 131 2 129 28 129 50 0 56 8 56 75 0 68 5 75 62 75 30 0 30 0 26 50 -1 28
2 52 7 54 6 3 71 5 146 5 124 1 137 -1 154 -19z m-1091 -6 c22 -22 22 -92 0
-90 -15 1 -17 -10 -15 -74 2 -41 7 -81 13 -88 7 -8 8 -40 3 -95 -4 -45 -8
-111 -9 -147 l-1 -65 48 -3 47 -3 0 -60 0 -59 -149 0 -149 0 -4 53 c-4 59 2
67 55 67 l37 0 0 180 0 180 -40 0 c-22 0 -40 3 -41 8 0 4 -3 20 -5 36 -8 46 3
75 31 82 13 3 29 12 36 20 6 8 20 14 30 14 9 0 27 14 39 30 24 33 50 38 74 14z
m-916 -6 c7 -7 12 -31 12 -54 0 -37 -3 -43 -22 -46 -19 -2 -24 -10 -26 -41 -2
-21 2 -45 8 -52 8 -10 11 -67 9 -187 l-3 -173 47 -3 47 -3 0 -60 0 -60 -142 3
-143 3 -3 57 -3 57 33 3 33 3 3 172 2 172 -42 3 -43 3 -3 52 -3 52 48 3 c41 3
48 6 51 25 5 37 59 83 96 83 17 0 37 -5 44 -12z m2963 -135 c1 -82 2 -213 3
-293 1 -80 5 -151 9 -157 5 -8 30 -13 61 -13 51 0 54 -1 58 -28 7 -52 7 -52
-162 -52 -175 0 -210 7 -210 42 0 56 10 67 59 70 l46 3 3 183 2 182 -40 0
c-38 0 -40 1 -40 31 0 22 13 46 45 83 25 29 45 57 45 63 0 21 27 33 72 33 l48
0 1 -147z m1156 -425 c-2 -13 -4 -5 -4 17 -1 22 1 32 4 23 2 -10 2 -28 0 -40z
m-4041 -506 c-4 -3 -11 -1 -18 6 -8 8 -8 15 3 28 13 16 14 16 17 -5 2 -13 1
-25 -2 -29z m4142 -500 c9 -6 12 -32 10 -93 l-3 -84 -435 4 c-239 2 -438 5
-443 8 -4 2 -5 9 -2 14 4 5 -40 9 -107 10 -62 1 -144 2 -183 4 -38 2 -196 6
-349 9 -154 3 -287 8 -296 11 -22 7 -15 72 8 77 10 2 219 3 465 2 427 -2 450
-1 468 17 15 15 37 19 131 21 290 7 724 7 736 0z m-6984 -664 c3 -7 7 -25 10
-40 4 -19 13 -28 26 -28 16 0 20 -7 20 -33 0 -32 -1 -32 -47 -34 -108 -3 -123
-5 -112 -20 8 -9 8 -13 0 -13 -6 0 -10 -11 -9 -25 1 -14 7 -25 12 -25 6 0 5
-5 -1 -11 -9 -9 -8 -15 3 -26 9 -10 14 -37 14 -82 0 -80 10 -89 100 -93 l55
-3 0 -115 c0 -108 -1 -115 -20 -114 -11 1 -45 2 -75 3 l-55 1 -28 62 c-16 35
-29 83 -30 110 l-2 48 -197 0 c-169 0 -198 2 -199 15 -1 8 -3 20 -4 25 -1 6
-3 28 -4 50 -1 32 -5 40 -20 40 -22 0 -31 40 -31 142 0 58 -3 67 -20 73 -31
10 -29 82 3 95 12 5 154 9 315 9 226 1 294 -2 296 -11z m441 -238 c10 16 25 1
18 -17 -4 -11 -3 -14 5 -9 7 4 12 14 12 22 0 26 35 11 37 -16 3 -25 3 -25 -7
-2 -5 12 -12 22 -15 22 -4 0 -3 -4 0 -10 3 -5 1 -10 -6 -10 -7 0 -5 -8 6 -20
18 -19 17 -20 -1 -20 -11 0 -25 9 -32 20 -15 25 -32 26 -32 2 0 -14 -9 -19
-39 -20 -22 -2 -43 3 -47 9 -5 9 -2 10 10 6 10 -4 16 -2 15 6 -3 28 2 39 16
33 8 -3 15 -1 15 5 0 6 7 6 19 -1 14 -7 22 -7 26 0z m168 -9 c-3 -12 -2 -12 7
2 13 19 45 24 34 5 -6 -10 -4 -10 7 0 19 18 133 16 149 -3 7 -8 17 -15 23 -15
6 0 2 7 -9 15 -17 13 -5 14 121 11 159 -5 157 -4 130 -16 -16 -7 -17 -9 -3 -9
9 -1 20 4 23 9 9 15 25 12 25 -5 0 -8 4 -15 8 -15 5 0 9 -7 9 -15 0 -8 -6 -15
-14 -15 -7 0 -13 7 -13 15 0 21 -20 19 -21 -2 -1 -17 -2 -17 -6 0 -2 9 -11 17
-20 17 -10 0 -14 -6 -10 -20 l5 -20 -28 20 c-34 24 -40 25 -40 3 -1 -14 -4
-12 -16 7 -12 20 -14 21 -9 5 4 -18 1 -21 -22 -20 -16 1 -34 -4 -42 -9 -11 -8
-13 -8 -8 0 4 7 0 14 -8 18 -8 3 -15 0 -15 -7 0 -9 -36 -12 -152 -9 -201 4
-205 4 -190 9 6 3 10 9 6 14 -3 5 -2 18 1 29 5 16 14 19 45 18 30 -1 37 -5 33
-17z m577 -2 c-12 -9 -11 -10 8 -6 14 3 22 0 22 -8 0 -8 -9 -11 -25 -7 -14 2
-25 8 -25 13 0 5 -7 6 -15 3 -8 -4 -15 -1 -15 5 0 6 15 11 33 11 25 0 29 -3
17 -11z m150 -5 c0 -15 -33 -11 -38 4 -2 6 6 10 17 9 12 -1 21 -7 21 -13z m56
-6 c4 -7 4 -10 -1 -6 -4 4 -16 3 -26 -3 -12 -6 -19 -6 -19 0 0 5 8 12 18 14 9
3 18 5 19 6 1 0 5 -5 9 -11z m-109 -4 c-3 -3 -12 -4 -19 -1 -8 3 -5 6 6 6 11
1 17 -2 13 -5z m-90 -30 c-3 -3 -12 -4 -19 -1 -8 3 -5 6 6 6 11 1 17 -2 13 -5z
m-387 -79 c27 -17 -14 -20 -232 -17 -132 2 -227 6 -219 11 7 5 61 9 119 10 59
1 109 4 112 7 7 8 206 -2 220 -11z m3725 -107 c-3 6 -1 12 4 12 6 0 11 -7 11
-15 0 -8 7 -15 16 -15 13 0 14 3 5 13 -6 8 -8 17 -4 20 13 13 20 7 17 -15 -1
-13 -3 -26 -3 -30 -1 -5 -9 -8 -19 -8 -10 0 -24 -6 -31 -12 -10 -9 -12 -9 -7
-1 3 6 2 14 -4 18 -5 3 -10 18 -10 33 0 25 0 25 16 6 8 -10 13 -13 9 -6z m135
-5 c0 16 2 17 15 3 21 -21 19 -24 -17 -20 -38 5 -40 7 -32 29 6 15 8 15 20 -6
11 -20 13 -21 14 -6z m160 12 c0 -2 -10 -9 -22 -15 -22 -11 -22 -10 -4 4 21
17 26 19 26 11z m-220 -20 c0 -8 -4 -15 -8 -15 -5 0 -9 7 -9 15 0 8 4 15 9 15
4 0 8 -7 8 -15z m32 -24 c8 11 9 11 6 1 -4 -16 -22 -18 -25 -3 -1 8 0 7 4 0 4
-8 8 -7 15 2z"/>
<path d="M4690 9180 c0 -5 5 -10 10 -10 6 0 10 5 10 10 0 6 -4 10 -10 10 -5 0
-10 -4 -10 -10z"/>
<path d="M8284 3112 c-43 -22 -69 -42 -67 -49 3 -7 -1 -13 -7 -13 -9 0 -9 -4
-2 -13 6 -7 7 -18 2 -26 -4 -8 -7 -19 -5 -25 12 -38 14 -101 2 -108 -6 -4 -7
-8 -2 -8 6 0 10 -21 10 -47 -1 -96 7 -126 38 -136 16 -5 48 -6 73 -2 l44 6 0
230 c0 126 -3 229 -7 229 -5 -1 -40 -18 -79 -38z"/>
<path d="M3887 8454 c-4 -4 -7 -22 -7 -39 0 -18 -7 -38 -15 -45 -13 -11 -15
-40 -13 -179 l3 -166 40 -3 c35 -2 41 0 52 25 7 15 13 56 15 90 3 70 12 76 51
38 15 -16 28 -22 32 -16 7 12 -12 90 -26 107 -4 5 -9 50 -11 100 l-3 89 -55 3
c-31 2 -59 0 -63 -4z"/>
<path d="M4343 8454 c-10 -4 -13 -53 -13 -197 0 -171 2 -195 19 -216 l18 -24
49 37 c26 20 50 45 52 54 9 40 12 261 5 302 l-8 45 -55 2 c-30 1 -61 -1 -67
-3z"/>
<path d="M4803 8444 c-3 -9 -3 -95 0 -191 6 -198 12 -213 76 -213 51 0 63 11
78 71 7 29 21 58 31 65 16 11 16 13 -2 33 -15 16 -18 33 -15 93 1 40 2 92 1
116 l-2 42 -80 0 c-65 0 -82 -3 -87 -16z"/>
<path d="M4523 8155 c0 -27 2 -38 4 -22 2 15 2 37 0 50 -2 12 -4 0 -4 -28z"/>
<path d="M3763 8143 c9 -2 23 -2 30 0 6 3 -1 5 -18 5 -16 0 -22 -2 -12 -5z"/>
<path d="M3783 8010 c0 -25 2 -35 4 -22 2 12 2 32 0 45 -2 12 -4 2 -4 -23z"/>
<path d="M5760 8446 c0 -18 45 -23 55 -6 3 6 0 10 -9 10 -8 0 -21 3 -30 6 -11
4 -16 1 -16 -10z"/>
<path d="M3289 7649 c-9 -14 -18 -49 -20 -79 -4 -54 -3 -55 24 -58 18 -2 27
-9 27 -21 0 -67 24 -240 36 -258 11 -18 24 -23 59 -23 51 0 70 15 85 68 13 50
13 69 -6 122 -9 25 -20 70 -25 100 -9 53 -17 77 -43 130 -13 26 -17 27 -78 17
-29 -4 -37 -2 -40 11 -2 13 -7 11 -19 -9z"/>
<path d="M3260 7370 c0 -5 7 -10 15 -10 8 0 15 5 15 10 0 6 -7 10 -15 10 -8 0
-15 -4 -15 -10z"/>
<path d="M4050 6683 c-45 -32 -48 -41 -49 -149 -1 -109 12 -147 49 -141 50 10
85 18 89 23 9 9 17 270 8 282 -15 19 -59 13 -97 -15z"/>
<path d="M4421 6656 c-12 -48 -15 -204 -5 -230 5 -12 21 -16 75 -16 l69 0 0
129 c0 126 -1 129 -25 145 -13 9 -42 16 -63 16 -38 0 -40 -1 -51 -44z"/>
<path d="M6682 5785 c-2 -82 -5 -168 -7 -190 -4 -34 -3 -36 6 -16 5 14 8 96 6
190 l-3 166 -2 -150z"/>
<path d="M2728 5686 c-26 -19 -23 -53 5 -62 12 -3 29 -12 37 -19 17 -14 63
-13 68 1 2 5 -7 12 -20 15 -20 5 -21 7 -5 14 27 11 20 30 -18 48 -42 20 -45
20 -67 3z"/>
<path d="M3821 6017 c-7 -9 -17 -15 -21 -12 -13 8 -40 -42 -41 -77 -1 -18 8
-64 19 -103 19 -68 20 -69 26 -35 3 19 8 61 10 93 3 32 11 67 16 78 6 11 10
32 8 46 -3 24 -4 25 -17 10z"/>
<path d="M4160 5864 c0 -8 5 -12 10 -9 6 3 10 10 10 16 0 5 -4 9 -10 9 -5 0
-10 -7 -10 -16z"/>
<path d="M3750 5737 c0 -4 7 -24 15 -44 10 -22 15 -68 15 -124 0 -75 2 -89 16
-89 14 0 15 9 9 68 -11 114 -16 136 -36 167 -10 17 -19 26 -19 22z"/>
<path d="M5400 5790 c-1 -41 -4 -101 -5 -134 -3 -48 -1 -56 10 -45 10 11 11
41 5 134 -6 110 -7 114 -10 45z"/>
<path d="M3727 4656 c-3 -8 -2 -18 3 -21 13 -8 24 15 12 27 -6 6 -11 4 -15 -6z"/>
<path d="M4723 5005 c-8 -23 0 -25 21 -4 18 17 18 19 2 19 -9 0 -19 -7 -23
-15z"/>
<path d="M6250 4199 c-9 -20 -16 -26 -20 -18 -4 6 -13 8 -19 5 -8 -5 -9 -29
-6 -74 6 -60 5 -65 -8 -49 -15 18 -15 18 -21 -1 -11 -32 -53 -54 -88 -47 l-30
7 21 -21 c12 -12 21 -26 21 -32 0 -13 74 -6 93 9 12 11 15 1 19 -66 4 -65 10
-88 37 -136 30 -52 36 -57 60 -51 14 4 27 8 29 9 1 2 11 35 22 74 24 87 28
266 7 279 -8 4 -17 26 -20 48 -4 28 -16 48 -39 68 -18 15 -35 27 -39 27 -4 0
-12 -14 -19 -31z"/>
<path d="M6142 4090 c-9 -14 -10 -26 -3 -38 9 -16 10 -16 16 0 4 9 5 26 3 38
l-3 21 -13 -21z"/>
<path d="M3698 4293 c12 -2 32 -2 45 0 12 2 2 4 -23 4 -25 0 -35 -2 -22 -4z"/>
<path d="M4136 4014 c-9 -23 -7 -127 3 -143 6 -9 15 6 30 50 22 64 26 87 15
76 -4 -4 -15 2 -24 13 -16 18 -18 18 -24 4z"/>
<path d="M4840 4274 c0 -9 7 -14 18 -12 9 1 23 -1 30 -6 11 -7 12 -4 3 13 -14
24 -51 29 -51 5z"/>
<path d="M4743 4010 c0 -25 2 -35 4 -22 2 12 2 32 0 45 -2 12 -4 2 -4 -23z"/>
<path d="M6795 3230 c3 -5 8 -10 11 -10 2 0 4 5 4 10 0 6 -5 10 -11 10 -5 0
-7 -4 -4 -10z"/>
<path d="M3070 3060 c0 -5 5 -10 10 -10 6 0 10 5 10 10 0 6 -4 10 -10 10 -5 0
-10 -4 -10 -10z"/>
<path d="M3857 3323 c-8 -12 -10 -85 -8 -260 1 -193 3 -196 90 -191 l56 3 3
208 c1 132 -1 215 -8 227 -9 16 -21 20 -70 20 -32 0 -61 -3 -63 -7z"/>
<path d="M3795 3300 c-3 -5 -1 -10 4 -10 6 0 11 5 11 10 0 6 -2 10 -4 10 -3 0
-8 -4 -11 -10z"/>
<path d="M5935 2810 c-8 -14 3 -30 21 -30 8 0 14 9 14 20 0 21 -24 28 -35 10z"/>
<path d="M6586 3314 c-3 -9 -6 -30 -6 -47 0 -43 21 -21 25 27 4 37 -8 49 -19
20z"/>
<path d="M7513 1733 c9 -2 25 -2 35 0 9 3 1 5 -18 5 -19 0 -27 -2 -17 -5z"/>
<path d="M2187 933 c-11 -10 -8 -35 3 -28 6 4 8 10 5 15 -3 4 1 11 7 13 7 3 8
6 2 6 -6 1 -14 -2 -17 -6z"/>
<path d="M2688 943 c6 -2 18 -2 25 0 6 3 1 5 -13 5 -14 0 -19 -2 -12 -5z"/>
<path d="M2405 919 c-4 -6 -4 -13 -1 -16 3 -4 6 -1 6 6 0 7 5 9 12 5 7 -4 8
-3 4 4 -9 15 -13 15 -21 1z"/>
<path d="M2515 910 c3 -5 8 -10 11 -10 2 0 4 5 4 10 0 6 -5 10 -11 10 -5 0 -7
-4 -4 -10z"/>
<path d="M1511 8957 c-14 -14 -14 -27 0 -27 5 0 8 4 4 9 -3 5 5 11 17 13 18 3
20 5 7 10 -9 3 -22 1 -28 -5z"/>
<path d="M1530 8932 c0 -6 -8 -13 -17 -15 -14 -4 -13 -5 4 -6 16 -1 20 -6 16
-21 -3 -11 -1 -20 4 -20 11 0 10 56 0 67 -4 3 -7 1 -7 -5z"/>
<path d="M4773 1678 c-32 -15 -29 -28 7 -28 17 0 30 5 30 10 0 6 -5 10 -11 10
-5 0 -7 5 -4 10 7 12 7 12 -22 -2z"/>
<path d="M4921 1671 c-18 -11 -3 -18 34 -15 17 1 36 3 43 3 7 1 10 6 7 11 -8
12 -65 13 -84 1z"/>
<path d="M4798 1452 l-68 -3 0 -60 c0 -39 4 -61 13 -64 10 -3 53 -7 200 -15 4
0 7 -26 7 -58 l0 -59 313 -8 c171 -4 369 -9 440 -10 113 -3 146 2 118 19 -4 3
-91 8 -192 12 -187 6 -235 15 -245 46 -4 15 -17 18 -74 18 -72 0 -96 13 -66
36 15 11 15 13 2 21 -10 5 -16 27 -18 68 l-3 60 -180 0 c-99 0 -210 -1 -247
-3z"/>
<path d="M2858 1422 l-468 -2 0 -54 0 -53 143 -5 c78 -3 308 -3 510 0 l368 5
-3 56 -3 56 -40 0 c-22 0 -250 -1 -507 -3z"/>
<path d="M5478 1313 c34 -2 90 -2 125 0 34 2 6 3 -63 3 -69 0 -97 -1 -62 -3z"/>
<path d="M5698 1313 c12 -2 30 -2 40 0 9 3 -1 5 -23 4 -22 0 -30 -2 -17 -4z"/>
<path d="M8621 1251 c-8 -5 3 -9 33 -9 25 -1 46 3 46 8 0 12 -60 13 -79 1z"/>
<path d="M8758 1253 c6 -2 18 -2 25 0 6 3 1 5 -13 5 -14 0 -19 -2 -12 -5z"/>
<path d="M7274 1234 c3 -9 6 -76 6 -150 l0 -134 546 0 545 0 -3 48 -3 47 -50
3 c-35 2 -45 6 -35 12 13 8 12 10 -2 10 -10 0 -18 -5 -18 -12 0 -6 -10 -3 -22
8 -13 12 -18 13 -13 4 8 -13 7 -13 -8 -1 -9 7 -17 10 -17 5 0 -4 -6 1 -14 12
-12 15 -17 16 -27 7 -8 -8 -18 -9 -31 -2 -10 5 -23 7 -28 4 -5 -3 -12 -1 -15
5 -5 8 -11 8 -20 0 -7 -5 -36 -9 -64 -7 -28 2 -54 0 -57 -5 -3 -4 -11 -5 -17
-1 -7 4 -16 8 -21 8 -5 0 -11 6 -13 13 -3 6 2 12 11 12 13 0 16 12 16 65 l0
65 -326 0 c-293 0 -326 -2 -320 -16z"/>
<path d="M5840 1184 c0 -8 6 -11 15 -8 8 4 15 9 15 13 0 4 -7 8 -15 8 -8 0
-15 -6 -15 -13z"/>
<path d="M6175 1160 c-2 -4 -170 -8 -372 -9 -213 -1 -372 -6 -377 -12 -6 -6
-6 -13 2 -21 7 -7 12 -31 12 -54 0 -23 6 -46 13 -52 8 -6 176 -11 467 -12 250
-2 460 -2 467 -1 7 0 13 28 15 75 2 56 0 72 -9 69 -7 -3 -13 -1 -13 4 0 5 -16
10 -37 11 -20 2 -40 5 -45 8 -4 3 -8 1 -8 -4 0 -6 -8 -8 -17 -6 -43 9 -94 11
-98 4z"/>
<path d="M8203 670 c16 -5 38 -5 50 0 17 7 10 9 -28 9 -43 -1 -46 -2 -22 -9z"/>
<path d="M10080 80 l0 -80 80 0 80 0 0 80 0 80 -80 0 -80 0 0 -80z"/>
</g>
</svg>
